HIERARCHY
ROOT hips
{
  OFFSET 0 10.6860622 2.3727825e-15
  CHANNELS 6 Xposition Yposition Zposition Yrotation Xrotation Zrotation
  JOINT leftUpperLeg
  {
    OFFSET 0.6642549969 -0.9402397400000004 0
    CHANNELS 3 Yrotation Xrotation Zrotation
    JOINT leftLowerLeg
    {
      OFFSET 0 -3.997221335632195 0
      CHANNELS 3 Yrotation Xrotation Zrotation
      JOINT leftFoot
      {
        OFFSET -0.13777839790000004 -4.6145792000000005 -0.22186036399999998
        CHANNELS 3 Yrotation Xrotation Zrotation
        JOINT leftToes
        {
          OFFSET -0.03777410834999995 -0.9130806927000008 0.85230013
          CHANNELS 3 Yrotation Xrotation Zrotation
          End Site
          {
            OFFSET -0.03777410834999995 -0.9130806927000008 0.85230013
          }
        }
      }
    }
  }
  JOINT rightUpperLeg
  {
    OFFSET -0.6642778626 -0.9402397400000004 0
    CHANNELS 3 Yrotation Xrotation Zrotation
    JOINT rightLowerLeg
    {
      OFFSET 0 -3.997221452859387 0
      CHANNELS 3 Yrotation Xrotation Zrotation
      JOINT rightFoot
      {
        OFFSET 0.1377926176 -4.6145792000000005 -0.22185782299999995
        CHANNELS 3 Yrotation Xrotation Zrotation
        JOINT rightToes
        {
          OFFSET 0.037780746850000047 -0.9130806927000008 0.85230167
          CHANNELS 3 Yrotation Xrotation Zrotation
          End Site
          {
            OFFSET 0.037780746850000047 -0.9130806927000008 0.85230167
          }
        }
      }
    }
  }
  JOINT spine
  {
    OFFSET 0 0.13988381660000015 0
    CHANNELS 3 Yrotation Xrotation Zrotation
    JOINT chest
    {
      OFFSET 0 0.6191039003973773 0
      CHANNELS 3 Yrotation Xrotation Zrotation
      JOINT upperChest
      {
        OFFSET 0 0.9855186130586943 0
        CHANNELS 3 Yrotation Xrotation Zrotation
        JOINT leftShoulder
        {
          OFFSET 0.1807663869 1.5087829790000005 0
          CHANNELS 3 Yrotation Xrotation Zrotation
          JOINT leftUpperArm
          {
            OFFSET 0.5985063006419806 0 0
            CHANNELS 3 Yrotation Xrotation Zrotation
            JOINT leftLowerArm
            {
              OFFSET 2.2993332369501065 0 0
              CHANNELS 3 Yrotation Xrotation Zrotation
              JOINT leftHand
              {
                OFFSET 2.395047042602395 0 0
                CHANNELS 3 Yrotation Xrotation Zrotation
                JOINT leftIndexProximal
                {
                  OFFSET 0.5766295810000004 0.04556643899499946 0.17265095988184
                  CHANNELS 3 Yrotation Xrotation Zrotation
                  JOINT leftIndexIntermediate
                  {
                    OFFSET 0.2957229000000008 -0.019352197700001517 -0.007932640616999987
                    CHANNELS 3 Yrotation Xrotation Zrotation
                    JOINT leftIndexDistal
                    {
                      OFFSET 0.19008243099999922 -0.012484908149998475 -0.002786250786000012
                      CHANNELS 3 Yrotation Xrotation Zrotation
                      End Site
                      {
                        OFFSET 0.19008243099999922 -0.012484908149998475 -0.002786250786000012
                      }
                    }
                  }
                }
                JOINT leftMiddleProximal
                {
                  OFFSET 0.5834975091000001 0.0524350405149987 0.02204081888183999
                  CHANNELS 3 Yrotation Xrotation Zrotation
                  JOINT leftMiddleIntermediate
                  {
                    OFFSET 0.33880573540000003 -0.019871473270000717 -0.00000971183179999946
                    CHANNELS 3 Yrotation Xrotation Zrotation
                    JOINT leftMiddleDistal
                    {
                      OFFSET 0.20676022730000088 -0.012221336379999448 0.0001471936708000235
                      CHANNELS 3 Yrotation Xrotation Zrotation
                      End Site
                      {
                        OFFSET 0.20676022730000088 -0.012221336379999448 0.0001471936708000235
                      }
                    }
                  }
                }
                JOINT leftLittleProximal
                {
                  OFFSET 0.5344154683999995 -0.012880921405001189 -0.24414037221816004
                  CHANNELS 3 Yrotation Xrotation Zrotation
                  JOINT leftLittleIntermediate
                  {
                    OFFSET 0.21758961730000093 -0.011650919939999227 0.011893592810000034
                    CHANNELS 3 Yrotation Xrotation Zrotation
                    JOINT leftLittleDistal
                    {
                      OFFSET 0.1475273964999999 -0.008152365682999818 0.006001092492999946
                      CHANNELS 3 Yrotation Xrotation Zrotation
                      End Site
                      {
                        OFFSET 0.1475273964999999 -0.008152365682999818 0.006001092492999946
                      }
                    }
                  }
                }
                JOINT leftRingProximal
                {
                  OFFSET 0.5799399463000003 0.026911854694997794 -0.12150566991816003
                  CHANNELS 3 Yrotation Xrotation Zrotation
                  JOINT leftRingIntermediate
                  {
                    OFFSET 0.26167887460000006 -0.013480186499999602 0.010996293000000053
                    CHANNELS 3 Yrotation Xrotation Zrotation
                    JOINT leftRingDistal
                    {
                      OFFSET 0.17667108799999987 -0.008990287899999228 0.0055541023999999065
                      CHANNELS 3 Yrotation Xrotation Zrotation
                      End Site
                      {
                        OFFSET 0.17667108799999987 -0.008990287899999228 0.0055541023999999065
                      }
                    }
                  }
                }
                JOINT leftThumbProximal
                {
                  OFFSET 0.11018806699999972 -0.09448718900500053 0.17047963138184
                  CHANNELS 3 Yrotation Xrotation Zrotation
                  JOINT leftThumbIntermediate
                  {
                    OFFSET 0.31062601459999983 -0.08126270900000132 0.15443142000000007
                    CHANNELS 3 Yrotation Xrotation Zrotation
                    JOINT leftThumbDistal
                    {
                      OFFSET 0.21627175790000086 -0.08833193599999878 0.018771167799999988
                      CHANNELS 3 Yrotation Xrotation Zrotation
                      End Site
                      {
                        OFFSET 0.21627175790000086 -0.08833193599999878 0.018771167799999988
                      }
                    }
                  }
                }
              }
            }
          }
        }
        JOINT neck
        {
          OFFSET 0 1.5463305265074576 0
          CHANNELS 3 Yrotation Xrotation Zrotation
          JOINT head
          {
            OFFSET 0 0.8456443600000344 0
            CHANNELS 3 Yrotation Xrotation Zrotation
            JOINT leftEye
            {
              OFFSET 0.30408573140000006 0.5104519199999995 0.1276382305
              CHANNELS 3 Yrotation Xrotation Zrotation
              End Site
              {
                OFFSET 0.30408573140000006 0.5104519199999995 0.1276382305
              }
            }
            JOINT rightEye
            {
              OFFSET -0.30409491089999996 0.5104519199999995 0.1276379445
              CHANNELS 3 Yrotation Xrotation Zrotation
              End Site
              {
                OFFSET -0.30409491089999996 0.5104519199999995 0.1276379445
              }
            }
            JOINT jaw
            {
              OFFSET -3.155239131000001e-7 -0.11984121820000082 0.60178107
              CHANNELS 3 Yrotation Xrotation Zrotation
              End Site
              {
                OFFSET -3.155239131000001e-7 -0.11984121820000082 0.60178107
              }
            }
          }
        }
        JOINT rightShoulder
        {
          OFFSET -0.1807303465 1.5087829790000005 0
          CHANNELS 3 Yrotation Xrotation Zrotation
          JOINT rightUpperArm
          {
            OFFSET -0.5985063796536958 0 0
            CHANNELS 3 Yrotation Xrotation Zrotation
            JOINT rightLowerArm
            {
              OFFSET -2.2993322059002854 0 0
              CHANNELS 3 Yrotation Xrotation Zrotation
              JOINT rightHand
              {
                OFFSET -2.395045314457259 0 0
                CHANNELS 3 Yrotation Xrotation Zrotation
                JOINT rightIndexProximal
                {
                  OFFSET -0.5764487688300002 0.0441371204405987 0.17361932004999997
                  CHANNELS 3 Yrotation Xrotation Zrotation
                  JOINT rightIndexIntermediate
                  {
                    OFFSET -0.29573011380000047 -0.01934826376999843 -0.007698921482999974
                    CHANNELS 3 Yrotation Xrotation Zrotation
                    JOINT rightIndexDistal
                    {
                      OFFSET -0.19008373999999884 -0.012503266380000655 -0.0026365778999999897
                      CHANNELS 3 Yrotation Xrotation Zrotation
                      End Site
                      {
                        OFFSET -0.19008373999999884 -0.012503266380000655 -0.0026365778999999897
                      }
                    }
                  }
                }
                JOINT rightMiddleProximal
                {
                  OFFSET -0.5834852037300005 0.05211639405060153 0.02307162440000001
                  CHANNELS 3 Yrotation Xrotation Zrotation
                  JOINT rightMiddleIntermediate
                  {
                    OFFSET -0.33880114510000003 -0.019952774050000954 0.0002455003561999819
                    CHANNELS 3 Yrotation Xrotation Zrotation
                    JOINT rightMiddleDistal
                    {
                      OFFSET -0.20675694929999955 -0.012273788999999091 0.00030209124000002766
                      CHANNELS 3 Yrotation Xrotation Zrotation
                      End Site
                      {
                        OFFSET -0.20675694929999955 -0.012273788999999091 0.00030209124000002766
                      }
                    }
                  }
                }
                JOINT rightLittleProximal
                {
                  OFFSET -0.5346811737299992 -0.011214256288399227 -0.24363941305000003
                  CHANNELS 3 Yrotation Xrotation Zrotation
                  JOINT rightLittleIntermediate
                  {
                    OFFSET -0.21757715980000092 -0.011771559690000988 0.01201554387
                    CHANNELS 3 Yrotation Xrotation Zrotation
                    JOINT rightLittleDistal
                    {
                      OFFSET -0.1475201849000004 -0.00822055339600003 0.006082065407000015
                      CHANNELS 3 Yrotation Xrotation Zrotation
                      End Site
                      {
                        OFFSET -0.1475201849000004 -0.00822055339600003 0.006082065407000015
                      }
                    }
                  }
                }
                JOINT rightRingProximal
                {
                  OFFSET -0.5800810755299999 0.027657985680600072 -0.12066365025000003
                  CHANNELS 3 Yrotation Xrotation Zrotation
                  JOINT rightRingIntermediate
                  {
                    OFFSET -0.26166445029999974 -0.013623118409999302 0.011164098990000045
                    CHANNELS 3 Yrotation Xrotation Zrotation
                    JOINT rightRingDistal
                    {
                      OFFSET -0.17666387530000027 -0.009072900100000503 0.005668185599999959
                      CHANNELS 3 Yrotation Xrotation Zrotation
                      End Site
                      {
                        OFFSET -0.17666387530000027 -0.009072900100000503 0.005668185599999959
                      }
                    }
                  }
                }
                JOINT rightThumbProximal
                {
                  OFFSET -0.10997596379000074 -0.09577489355940072 0.16989765924999997
                  CHANNELS 3 Yrotation Xrotation Zrotation
                  JOINT rightThumbIntermediate
                  {
                    OFFSET -0.31036620999999986 -0.08229339117999834 0.15440884469999996
                    CHANNELS 3 Yrotation Xrotation Zrotation
                    JOINT rightThumbDistal
                    {
                      OFFSET -0.21631306399999906 -0.08825326400000111 0.018656797720000014
                      CHANNELS 3 Yrotation Xrotation Zrotation
                      End Site
                      {
                        OFFSET -0.21631306399999906 -0.08825326400000111 0.018656797720000014
                      }
                    }
                  }
                }
              }
            }
          }
        }
      }
    }
  }
}
MOTION
Frames: 6
Frame Time: 0.03333333333333333
0 -0.14269719245438817 -5.368352687514304 0 -69.00333113717853 0 -172.972179929632 -67.99327483783081 -158.20436708587584 31.563287609839744 83.29430879804417 46.36205445467645 2.7022330148469735 34.61418555006596 2.5458409096207797 0 0 0 174.2077103969486 -66.06483936525753 159.46540402056527 -84.38401708332141 85.09595375094486 -99.40354872439524 -5.189646684776903 32.89950754749934 -3.465812269482855 0 0 0 -0.8392570075197441 51.10815607886919 -1.5473970083129165 -0.4883359753606377 27.37937556962534 -0.8623301652272565 0 0 0 1.343902661690695 1.7845985129680815 -9.73906514077972 -3.721862160500793 47.56790130308856 0.3799603366925651 -8.002648985185473 0 0 0.36536226566368746 4.621773216928242 -6.140962236868586 0 0 0 0 0 0 0 0 0 0 0 0 0 0 0 0 0 0 0 0 0 0 0 0 0 0 0 0 0 0 0 0 0 0 0 0 0 0 0 0 0 0 0 0 0 0 -8.795321186199835 0 0 -9.383603086040544 0 0 0 0 0 0 0 0 0 0 -1.2016889918259275 1.7613814031835 9.926527204230446 3.715030369656942 47.568017718386976 -0.3867912495632737 7.999140822559021 0 0 -0.6308950090939216 4.648079914518044 5.119329619966149 0 0 0 0 0 0 0 0 0 0 0 0 0 0 0 0 0 0 0 0 0 0 0 0 0 0 0 0 0 0 0 0 0 0 0 0 0 0 0 0 0 0 0 0 0
0 -0.14269719245438817 -5.368352687514304 0 -69.00333113717853 0 -172.89054877349645 -67.98264143347753 -158.10605123895368 31.563287609839744 83.29430879804417 46.36205445467645 2.5172923416678823 34.71203249229404 2.525671027585738 0 0 0 174.0363700330049 -66.19070135066815 159.27704503768075 -79.88018222672216 85.1418693411134 -94.88397010227402 -4.834404873535074 33.122267264869805 -3.38999482388512 0 0 0 -0.8320034195702118 50.70837780635819 -1.538190130883799 -0.49183804018818517 28.112023137006126 -0.8695537924802176 0 0 0 1.250201445048986 1.751146252453336 -9.61533014566172 -3.721862160500793 47.56790130308856 0.3799603366925651 -8.002648985185473 0 0 0.3369024410118486 4.291889259670547 -6.203461057683578 0 0 0 0 0 0 0 0 0 0 0 0 0 0 0 0 0 0 0 0 0 0 0 0 0 0 0 0 0 0 0 0 0 0 0 0 0 0 0 0 0 0 0 0 0 0 -8.114772262077391 0 0 -8.76478069381747 0 0 0 0 0 0 0 0 0 0 -1.1184201168736396 1.729623042090414 9.789090590391789 3.715030369656942 47.568017718386976 -0.3867912495632737 7.999140822559021 0 0 -0.5806699793595134 4.316848869951273 5.255433746573554 0 0 0 0 0 0 0 0 0 0 0 0 0 0 0 0 0 0 0 0 0 0 0 0 0 0 0 0 0 0 0 0 0 0 0 0 0 0 0 0 0 0 0 0 0
0 -0.14269719245438817 -5.368352687514304 0 -69.00333113717853 0 -172.808908763541 -67.9720675399598 -158.00773182042252 31.563287609839744 83.29430879804417 46.36205445467645 2.332084885833723 34.809828951241805 2.5050939061019193 0 0 0 173.8651828734206 -66.31675946571838 159.0886446693799 -75.3184732197811 85.15725756094092 -90.30650854012536 -4.477856261919797 33.34464913447003 -3.3123190956615396 0 0 0 -0.8249084699219547 50.30853612396359 -1.5291370404866231 -0.4954709175320051 28.845006361611457 -0.8768821434360586 0 0 0 1.156427382186609 1.7178965973006874 -9.491539666244096 -3.721862160500793 47.56790130308856 0.3799603366925651 -8.002648985185473 0 0 0.3088127866134199 3.961943670727751 -6.265774937374578 0 0 0 0 0 0 0 0 0 0 0 0 0 0 0 0 0 0 0 0 0 0 0 0 0 0 0 0 0 0 0 0 0 0 0 0 0 0 0 0 0 0 0 0 0 0 -7.433961107313322 0 0 -8.145762389978165 0 0 0 0 0 0 0 0 0 0 -1.0350744502609723 1.6980631615101913 9.651608070197142 3.715030369656942 47.568017718386976 -0.3867912495632737 7.999140822559021 0 0 -0.5312498483642619 3.985465332815624 5.391204948982258 0 0 0 0 0 0 0 0 0 0 0 0 0 0 0 0 0 0 0 0 0 0 0 0 0 0 0 0 0 0 0 0 0 0 0 0 0 0 0 0 0 0 0 0 0
0 -0.14269719245438817 -5.368352687514304 0 -69.00333113717853 0 -172.7272598925389 -67.96152577142597 -157.90940096879956 31.563287609839744 83.29430879804417 46.36205445467645 2.146608739016033 34.90757086825155 2.484103762487735 0 0 0 173.69415007420673 -66.44309419500352 158.90023985768622 -70.75682690450164 85.14174836697161 -85.72911609103113 -4.119996372157371 33.56665772403996 -3.2327779183003917 0 0 0 -0.8179714034209451 49.908666422143625 -1.5202358645086906 -0.4992384148944205 29.578243462957523 -0.884318149301614 0 0 0 1.062582233919431 1.6848490985598896 -9.367691847094783 -3.721862160500793 47.56790130308856 0.3799603366925651 -8.002648985185473 0 0 0.28109168001965545 3.6319414183081618 -6.327908236569159 0 0 0 0 0 0 0 0 0 0 0 0 0 0 0 0 0 0 0 0 0 0 0 0 0 0 0 0 0 0 0 0 0 0 0 0 0 0 0 0 0 0 0 0 0 0 -6.7529332276924805 0 0 -7.5265777866102415 0 0 0 0 0 0 0 0 0 0 -0.951653388590677 1.6667024894217455 9.514075856806137 3.715030369656942 47.568017718386976 -0.3867912495632737 7.999140822559021 0 0 -0.48263108583611364 3.6539359543453336 5.526648155410275 0 0 0 0 0 0 0 0 0 0 0 0 0 0 0 0 0 0 0 0 0 0 0 0 0 0 0 0 0 0 0 0 0 0 0 0 0 0 0 0 0 0 0 0 0
0 -0.14269719245438817 -5.368352687514304 0 -69.00333113717853 0 -172.6455870765296 -67.95107066721562 -157.81110025497847 31.563287609839744 83.29430879804417 46.36205445467645 1.9608635575929623 35.00525416417388 2.462703147064803 0 0 0 173.52328729418812 -66.56965025372259 158.71177834673347 -66.25193533333133 85.09571406538272 -81.2084743712321 -3.7608117832278904 33.78826062836753 -3.1513581771174044 0 0 0 -0.8111869999912427 49.50875015760152 -1.511483107194288 -0.5031457125164697 30.31170114510743 -0.8918689014064035 0 0 0 0.9686652001911119 1.6520035213140003 -9.243793821686614 -3.721862160500793 47.56790130308856 0.3799603366925651 -8.002648985185473 0 0 0.2537364818236649 3.3018900126610147 -6.389862300589551 0 0 0 0 0 0 0 0 0 0 0 0 0 0 0 0 0 0 0 0 0 0 0 0 0 0 0 0 0 0 0 0 0 0 0 0 0 0 0 0 0 0 0 0 0 0 -6.071734374659462 0 0 -6.907268125939121 0 0 0 0 0 0 0 0 0 0 -0.8681575637934316 1.6355418609435812 9.376501437452898 3.715030369656942 47.568017718386976 -0.3867912495632737 7.999140822559021 0 0 -0.43481071713280656 3.3222707622515957 5.661772405152628 0 0 0 0 0 0 0 0 0 0 0 0 0 0 0 0 0 0 0 0 0 0 0 0 0 0 0 0 0 0 0 0 0 0 0 0 0 0 0 0 0 0 0 0 0
0 -0.14269719245438817 -5.368352687514304 0 -69.00333113717853 0 -172.56391694429558 -67.94063845761612 -157.71277807967206 31.563287609839744 83.29430879804417 46.36205445467645 1.7748491995172062 35.10289561073731 2.44088959417556 0 0 0 173.3525865904955 -66.69642303145062 158.5233164485241 -61.857268528223344 85.01995969541159 -76.79805229826326 -3.400292723972146 34.00943742748132 -3.06804628812198 0 0 0 -0.8045485402364718 49.108810954858306 -1.5028711315142256 -0.5071971205564529 31.045306598182272 -0.8995359188859138 0 0 0 0.8746786311306924 1.619361552883383 -9.119843426950872 -3.721862160500793 47.56790130308856 0.3799603366925651 -8.002648985185473 0 0 0.22674636503410786 2.971795443173139 -6.451643072516302 0 0 0 0 0 0 0 0 0 0 0 0 0 0 0 0 0 0 0 0 0 0 0 0 0 0 0 0 0 0 0 0 0 0 0 0 0 0 0 0 0 0 0 0 0 0 -5.390418338855723 0 0 -6.2878699302305865 0 0 0 0 0 0 0 0 0 0 -0.7845864877275441 1.604581150687139 9.238881884291143 3.715030369656942 47.568017718386976 -0.3867912495632737 7.999140822559021 0 0 -0.3877872442608825 2.9904765320995814 5.796583118491071 0 0 0 0 0 0 0 0 0 0 0 0 0 0 0 0 0 0 0 0 0 0 0 0 0 0 0 0 0 0 0 0 0 0 0 0 0 0 0 0 0 0 0 0 0
